<mxfile host="app.diagrams.net" modified="2024-01-25T07:47:32.665Z" agent="Mozilla/5.0 (Windows NT 10.0; Win64; x64) AppleWebKit/537.36 (KHTML, like Gecko) Chrome/120.0.0.0 Safari/537.36" etag="g947oXsD_IK6aOw_sQ7k" version="23.0.1" type="github">
  <diagram id="C5RBs43oDa-KdzZeNtuy" name="Page-1">
    <mxGraphModel dx="2220" dy="1867" grid="1" gridSize="10" guides="1" tooltips="1" connect="1" arrows="1" fold="1" page="1" pageScale="1" pageWidth="827" pageHeight="1169" math="0" shadow="0">
      <root>
        <mxCell id="WIyWlLk6GJQsqaUBKTNV-0" />
        <mxCell id="WIyWlLk6GJQsqaUBKTNV-1" parent="WIyWlLk6GJQsqaUBKTNV-0" />
        <mxCell id="vR9m7-6arPyV4lNx2N7o-25" style="edgeStyle=orthogonalEdgeStyle;rounded=0;orthogonalLoop=1;jettySize=auto;html=1;entryX=0.75;entryY=0;entryDx=0;entryDy=0;dashed=1;" edge="1" parent="WIyWlLk6GJQsqaUBKTNV-1" source="vR9m7-6arPyV4lNx2N7o-23" target="vR9m7-6arPyV4lNx2N7o-20">
          <mxGeometry relative="1" as="geometry" />
        </mxCell>
        <mxCell id="vR9m7-6arPyV4lNx2N7o-28" style="edgeStyle=orthogonalEdgeStyle;rounded=0;orthogonalLoop=1;jettySize=auto;html=1;entryX=0.25;entryY=0;entryDx=0;entryDy=0;dashed=1;" edge="1" parent="WIyWlLk6GJQsqaUBKTNV-1" source="vR9m7-6arPyV4lNx2N7o-26" target="vR9m7-6arPyV4lNx2N7o-20">
          <mxGeometry relative="1" as="geometry" />
        </mxCell>
        <mxCell id="vR9m7-6arPyV4lNx2N7o-45" value="packages\runtime-core\src\apiCreateApp.ts" style="swimlane;whiteSpace=wrap;html=1;startSize=20;fillColor=#dae8fc;strokeColor=#6c8ebf;" vertex="1" parent="WIyWlLk6GJQsqaUBKTNV-1">
          <mxGeometry x="1420" y="120" width="950" height="1250" as="geometry" />
        </mxCell>
        <mxCell id="vR9m7-6arPyV4lNx2N7o-58" value="createAppAPI" style="swimlane;whiteSpace=wrap;html=1;" vertex="1" parent="vR9m7-6arPyV4lNx2N7o-45">
          <mxGeometry x="20" y="40" width="300" height="450" as="geometry" />
        </mxCell>
        <mxCell id="vR9m7-6arPyV4lNx2N7o-66" value="" style="edgeStyle=orthogonalEdgeStyle;rounded=0;orthogonalLoop=1;jettySize=auto;html=1;" edge="1" parent="vR9m7-6arPyV4lNx2N7o-58" source="vR9m7-6arPyV4lNx2N7o-64" target="vR9m7-6arPyV4lNx2N7o-65">
          <mxGeometry relative="1" as="geometry" />
        </mxCell>
        <mxCell id="vR9m7-6arPyV4lNx2N7o-64" value="根组件" style="whiteSpace=wrap;html=1;rounded=1;glass=0;strokeWidth=1;shadow=0;" vertex="1" parent="vR9m7-6arPyV4lNx2N7o-58">
          <mxGeometry x="90" y="50" width="120" height="60" as="geometry" />
        </mxCell>
        <mxCell id="vR9m7-6arPyV4lNx2N7o-70" value="" style="edgeStyle=orthogonalEdgeStyle;rounded=0;orthogonalLoop=1;jettySize=auto;html=1;" edge="1" parent="vR9m7-6arPyV4lNx2N7o-58" source="vR9m7-6arPyV4lNx2N7o-65" target="vR9m7-6arPyV4lNx2N7o-69">
          <mxGeometry relative="1" as="geometry" />
        </mxCell>
        <mxCell id="vR9m7-6arPyV4lNx2N7o-65" value="createAppContext&lt;br&gt;创建App上下文context" style="whiteSpace=wrap;html=1;rounded=1;glass=0;strokeWidth=1;shadow=0;" vertex="1" parent="vR9m7-6arPyV4lNx2N7o-58">
          <mxGeometry x="90" y="160" width="120" height="60" as="geometry" />
        </mxCell>
        <mxCell id="vR9m7-6arPyV4lNx2N7o-67" value="context.app=app&lt;br&gt;返回app" style="whiteSpace=wrap;html=1;rounded=1;glass=0;strokeWidth=1;shadow=0;" vertex="1" parent="vR9m7-6arPyV4lNx2N7o-58">
          <mxGeometry x="90" y="370" width="120" height="60" as="geometry" />
        </mxCell>
        <mxCell id="vR9m7-6arPyV4lNx2N7o-71" value="" style="edgeStyle=orthogonalEdgeStyle;rounded=0;orthogonalLoop=1;jettySize=auto;html=1;" edge="1" parent="vR9m7-6arPyV4lNx2N7o-58" source="vR9m7-6arPyV4lNx2N7o-69" target="vR9m7-6arPyV4lNx2N7o-67">
          <mxGeometry relative="1" as="geometry" />
        </mxCell>
        <mxCell id="vR9m7-6arPyV4lNx2N7o-69" value="创建app&lt;br&gt;含context相关操作&lt;br&gt;mount/unmount等" style="whiteSpace=wrap;html=1;rounded=1;glass=0;strokeWidth=1;shadow=0;fillColor=#fff2cc;strokeColor=#d6b656;" vertex="1" parent="vR9m7-6arPyV4lNx2N7o-58">
          <mxGeometry x="90" y="260" width="120" height="60" as="geometry" />
        </mxCell>
        <mxCell id="vR9m7-6arPyV4lNx2N7o-73" style="edgeStyle=orthogonalEdgeStyle;rounded=0;orthogonalLoop=1;jettySize=auto;html=1;exitX=0;exitY=0.5;exitDx=0;exitDy=0;entryX=1;entryY=0.5;entryDx=0;entryDy=0;dashed=1;" edge="1" parent="vR9m7-6arPyV4lNx2N7o-45" source="vR9m7-6arPyV4lNx2N7o-72" target="vR9m7-6arPyV4lNx2N7o-65">
          <mxGeometry relative="1" as="geometry" />
        </mxCell>
        <mxCell id="vR9m7-6arPyV4lNx2N7o-72" value="createAppContext" style="swimlane;whiteSpace=wrap;html=1;fillColor=#fff2cc;strokeColor=#d6b656;" vertex="1" parent="vR9m7-6arPyV4lNx2N7o-45">
          <mxGeometry x="390" y="40" width="200" height="200" as="geometry" />
        </mxCell>
        <mxCell id="vR9m7-6arPyV4lNx2N7o-137" style="edgeStyle=orthogonalEdgeStyle;rounded=0;orthogonalLoop=1;jettySize=auto;html=1;entryX=1;entryY=0.5;entryDx=0;entryDy=0;" edge="1" parent="vR9m7-6arPyV4lNx2N7o-45" source="vR9m7-6arPyV4lNx2N7o-136" target="vR9m7-6arPyV4lNx2N7o-69">
          <mxGeometry relative="1" as="geometry" />
        </mxCell>
        <mxCell id="vR9m7-6arPyV4lNx2N7o-136" value="mount" style="swimlane;whiteSpace=wrap;html=1;" vertex="1" parent="vR9m7-6arPyV4lNx2N7o-45">
          <mxGeometry x="450" y="270" width="450" height="940" as="geometry" />
        </mxCell>
        <mxCell id="vR9m7-6arPyV4lNx2N7o-140" value="" style="edgeStyle=orthogonalEdgeStyle;rounded=0;orthogonalLoop=1;jettySize=auto;html=1;" edge="1" parent="vR9m7-6arPyV4lNx2N7o-136" source="vR9m7-6arPyV4lNx2N7o-138" target="vR9m7-6arPyV4lNx2N7o-139">
          <mxGeometry relative="1" as="geometry" />
        </mxCell>
        <mxCell id="vR9m7-6arPyV4lNx2N7o-141" value="N" style="edgeLabel;html=1;align=center;verticalAlign=middle;resizable=0;points=[];" vertex="1" connectable="0" parent="vR9m7-6arPyV4lNx2N7o-140">
          <mxGeometry x="-0.2444" y="2" relative="1" as="geometry">
            <mxPoint as="offset" />
          </mxGeometry>
        </mxCell>
        <mxCell id="vR9m7-6arPyV4lNx2N7o-138" value="是否已mounted" style="rhombus;whiteSpace=wrap;html=1;" vertex="1" parent="vR9m7-6arPyV4lNx2N7o-136">
          <mxGeometry x="125" y="40" width="80" height="80" as="geometry" />
        </mxCell>
        <mxCell id="vR9m7-6arPyV4lNx2N7o-162" value="" style="edgeStyle=orthogonalEdgeStyle;rounded=0;orthogonalLoop=1;jettySize=auto;html=1;" edge="1" parent="vR9m7-6arPyV4lNx2N7o-136" source="vR9m7-6arPyV4lNx2N7o-139" target="vR9m7-6arPyV4lNx2N7o-161">
          <mxGeometry relative="1" as="geometry" />
        </mxCell>
        <mxCell id="vR9m7-6arPyV4lNx2N7o-139" value="createVNode(rootComponent, rootProps=null)" style="rounded=1;whiteSpace=wrap;html=1;" vertex="1" parent="vR9m7-6arPyV4lNx2N7o-136">
          <mxGeometry x="27.25" y="160" width="275.5" height="60" as="geometry" />
        </mxCell>
        <mxCell id="vR9m7-6arPyV4lNx2N7o-166" value="" style="edgeStyle=orthogonalEdgeStyle;rounded=0;orthogonalLoop=1;jettySize=auto;html=1;" edge="1" parent="vR9m7-6arPyV4lNx2N7o-136" source="vR9m7-6arPyV4lNx2N7o-161" target="vR9m7-6arPyV4lNx2N7o-165">
          <mxGeometry relative="1" as="geometry" />
        </mxCell>
        <mxCell id="vR9m7-6arPyV4lNx2N7o-161" value="vnode.appContext = context" style="whiteSpace=wrap;html=1;rounded=1;" vertex="1" parent="vR9m7-6arPyV4lNx2N7o-136">
          <mxGeometry x="67.5" y="260" width="195" height="60" as="geometry" />
        </mxCell>
        <mxCell id="vR9m7-6arPyV4lNx2N7o-168" value="" style="edgeStyle=orthogonalEdgeStyle;rounded=0;orthogonalLoop=1;jettySize=auto;html=1;" edge="1" parent="vR9m7-6arPyV4lNx2N7o-136" source="vR9m7-6arPyV4lNx2N7o-165" target="vR9m7-6arPyV4lNx2N7o-167">
          <mxGeometry relative="1" as="geometry" />
        </mxCell>
        <mxCell id="vR9m7-6arPyV4lNx2N7o-165" value="..." style="whiteSpace=wrap;html=1;rounded=1;fillColor=#fff2cc;strokeColor=#d6b656;" vertex="1" parent="vR9m7-6arPyV4lNx2N7o-136">
          <mxGeometry x="105" y="350" width="120" height="60" as="geometry" />
        </mxCell>
        <mxCell id="vR9m7-6arPyV4lNx2N7o-173" style="edgeStyle=orthogonalEdgeStyle;rounded=0;orthogonalLoop=1;jettySize=auto;html=1;exitX=0.5;exitY=1;exitDx=0;exitDy=0;" edge="1" parent="vR9m7-6arPyV4lNx2N7o-136" source="vR9m7-6arPyV4lNx2N7o-167" target="vR9m7-6arPyV4lNx2N7o-172">
          <mxGeometry relative="1" as="geometry" />
        </mxCell>
        <mxCell id="vR9m7-6arPyV4lNx2N7o-167" value="render(vnode, rootContainer, namespace)" style="rounded=1;whiteSpace=wrap;html=1;" vertex="1" parent="vR9m7-6arPyV4lNx2N7o-136">
          <mxGeometry x="35" y="450" width="260" height="60" as="geometry" />
        </mxCell>
        <mxCell id="vR9m7-6arPyV4lNx2N7o-177" value="" style="edgeStyle=orthogonalEdgeStyle;rounded=0;orthogonalLoop=1;jettySize=auto;html=1;" edge="1" parent="vR9m7-6arPyV4lNx2N7o-136" source="vR9m7-6arPyV4lNx2N7o-172" target="vR9m7-6arPyV4lNx2N7o-176">
          <mxGeometry relative="1" as="geometry" />
        </mxCell>
        <mxCell id="vR9m7-6arPyV4lNx2N7o-172" value="isMounted=true&lt;br&gt;app._container = rootContainer&lt;br&gt;rootContainer.__vue_app__ = app" style="rounded=1;whiteSpace=wrap;html=1;" vertex="1" parent="vR9m7-6arPyV4lNx2N7o-136">
          <mxGeometry x="50" y="540" width="230" height="60" as="geometry" />
        </mxCell>
        <mxCell id="vR9m7-6arPyV4lNx2N7o-179" value="" style="edgeStyle=orthogonalEdgeStyle;rounded=0;orthogonalLoop=1;jettySize=auto;html=1;" edge="1" parent="vR9m7-6arPyV4lNx2N7o-136" source="vR9m7-6arPyV4lNx2N7o-176" target="vR9m7-6arPyV4lNx2N7o-178">
          <mxGeometry relative="1" as="geometry" />
        </mxCell>
        <mxCell id="vR9m7-6arPyV4lNx2N7o-180" value="空" style="edgeLabel;html=1;align=center;verticalAlign=middle;resizable=0;points=[];" vertex="1" connectable="0" parent="vR9m7-6arPyV4lNx2N7o-179">
          <mxGeometry x="-0.1833" y="2" relative="1" as="geometry">
            <mxPoint x="1" y="1" as="offset" />
          </mxGeometry>
        </mxCell>
        <mxCell id="vR9m7-6arPyV4lNx2N7o-182" value="" style="edgeStyle=orthogonalEdgeStyle;rounded=0;orthogonalLoop=1;jettySize=auto;html=1;" edge="1" parent="vR9m7-6arPyV4lNx2N7o-136" source="vR9m7-6arPyV4lNx2N7o-176" target="vR9m7-6arPyV4lNx2N7o-181">
          <mxGeometry relative="1" as="geometry" />
        </mxCell>
        <mxCell id="vR9m7-6arPyV4lNx2N7o-176" value="getExposeProxy(vnode.component!)" style="rhombus;whiteSpace=wrap;html=1;" vertex="1" parent="vR9m7-6arPyV4lNx2N7o-136">
          <mxGeometry x="37.5" y="650" width="255" height="80" as="geometry" />
        </mxCell>
        <mxCell id="vR9m7-6arPyV4lNx2N7o-178" value="返回vnode.component!.proxy" style="rounded=1;whiteSpace=wrap;html=1;" vertex="1" parent="vR9m7-6arPyV4lNx2N7o-136">
          <mxGeometry x="82.5" y="820" width="165" height="60" as="geometry" />
        </mxCell>
        <mxCell id="vR9m7-6arPyV4lNx2N7o-181" value="返回" style="rounded=1;whiteSpace=wrap;html=1;" vertex="1" parent="vR9m7-6arPyV4lNx2N7o-136">
          <mxGeometry x="320" y="660" width="120" height="60" as="geometry" />
        </mxCell>
        <mxCell id="vR9m7-6arPyV4lNx2N7o-163" style="edgeStyle=orthogonalEdgeStyle;rounded=0;orthogonalLoop=1;jettySize=auto;html=1;exitX=1;exitY=0.75;exitDx=0;exitDy=0;entryX=0;entryY=0.5;entryDx=0;entryDy=0;dashed=1;" edge="1" parent="vR9m7-6arPyV4lNx2N7o-45" source="vR9m7-6arPyV4lNx2N7o-65" target="vR9m7-6arPyV4lNx2N7o-161">
          <mxGeometry relative="1" as="geometry" />
        </mxCell>
        <mxCell id="vR9m7-6arPyV4lNx2N7o-164" value="context" style="edgeLabel;html=1;align=center;verticalAlign=middle;resizable=0;points=[];" vertex="1" connectable="0" parent="vR9m7-6arPyV4lNx2N7o-163">
          <mxGeometry x="0.6044" y="1" relative="1" as="geometry">
            <mxPoint as="offset" />
          </mxGeometry>
        </mxCell>
        <mxCell id="vR9m7-6arPyV4lNx2N7o-53" value="/packages/runtime-dom/src/index.ts" style="swimlane;whiteSpace=wrap;html=1;fillColor=#dae8fc;strokeColor=#6c8ebf;" vertex="1" parent="WIyWlLk6GJQsqaUBKTNV-1">
          <mxGeometry x="20" y="130" width="1380" height="1220" as="geometry" />
        </mxCell>
        <mxCell id="vR9m7-6arPyV4lNx2N7o-74" value="createApp" style="swimlane;whiteSpace=wrap;html=1;startSize=23;" vertex="1" parent="vR9m7-6arPyV4lNx2N7o-53">
          <mxGeometry x="50" y="50" width="300" height="450" as="geometry" />
        </mxCell>
        <mxCell id="vR9m7-6arPyV4lNx2N7o-78" style="edgeStyle=orthogonalEdgeStyle;rounded=0;orthogonalLoop=1;jettySize=auto;html=1;exitX=0.5;exitY=1;exitDx=0;exitDy=0;" edge="1" parent="vR9m7-6arPyV4lNx2N7o-74" source="vR9m7-6arPyV4lNx2N7o-12" target="vR9m7-6arPyV4lNx2N7o-77">
          <mxGeometry relative="1" as="geometry" />
        </mxCell>
        <mxCell id="vR9m7-6arPyV4lNx2N7o-12" value="ensureRenderer" style="whiteSpace=wrap;html=1;rounded=1;glass=0;strokeWidth=1;shadow=0;" vertex="1" parent="vR9m7-6arPyV4lNx2N7o-74">
          <mxGeometry x="80" y="70" width="120" height="60" as="geometry" />
        </mxCell>
        <mxCell id="vR9m7-6arPyV4lNx2N7o-92" value="" style="edgeStyle=orthogonalEdgeStyle;rounded=0;orthogonalLoop=1;jettySize=auto;html=1;" edge="1" parent="vR9m7-6arPyV4lNx2N7o-74" source="vR9m7-6arPyV4lNx2N7o-77" target="vR9m7-6arPyV4lNx2N7o-91">
          <mxGeometry relative="1" as="geometry" />
        </mxCell>
        <mxCell id="vR9m7-6arPyV4lNx2N7o-77" value="app=&lt;br&gt;ensureRenderer().createApp(...args)" style="whiteSpace=wrap;html=1;rounded=1;glass=0;strokeWidth=1;shadow=0;" vertex="1" parent="vR9m7-6arPyV4lNx2N7o-74">
          <mxGeometry x="35" y="195" width="210" height="60" as="geometry" />
        </mxCell>
        <mxCell id="vR9m7-6arPyV4lNx2N7o-91" value="app.mount 包装" style="whiteSpace=wrap;html=1;rounded=1;glass=0;strokeWidth=1;shadow=0;" vertex="1" parent="vR9m7-6arPyV4lNx2N7o-74">
          <mxGeometry x="80" y="335" width="120" height="60" as="geometry" />
        </mxCell>
        <mxCell id="vR9m7-6arPyV4lNx2N7o-76" style="edgeStyle=orthogonalEdgeStyle;rounded=0;orthogonalLoop=1;jettySize=auto;html=1;exitX=0;exitY=0.5;exitDx=0;exitDy=0;entryX=1;entryY=0.5;entryDx=0;entryDy=0;dashed=1;" edge="1" parent="vR9m7-6arPyV4lNx2N7o-53" source="vR9m7-6arPyV4lNx2N7o-75" target="vR9m7-6arPyV4lNx2N7o-12">
          <mxGeometry relative="1" as="geometry" />
        </mxCell>
        <mxCell id="vR9m7-6arPyV4lNx2N7o-75" value="ensureRenderer" style="swimlane;whiteSpace=wrap;html=1;startSize=23;" vertex="1" parent="vR9m7-6arPyV4lNx2N7o-53">
          <mxGeometry x="400" y="50" width="350" height="200" as="geometry" />
        </mxCell>
        <mxCell id="vR9m7-6arPyV4lNx2N7o-14" value="createRenderer(rendererOptions)" style="whiteSpace=wrap;html=1;rounded=1;glass=0;strokeWidth=1;shadow=0;" vertex="1" parent="vR9m7-6arPyV4lNx2N7o-75">
          <mxGeometry x="65" y="71" width="220" height="60" as="geometry" />
        </mxCell>
        <mxCell id="vR9m7-6arPyV4lNx2N7o-99" style="edgeStyle=orthogonalEdgeStyle;rounded=0;orthogonalLoop=1;jettySize=auto;html=1;exitX=0;exitY=0.5;exitDx=0;exitDy=0;entryX=1;entryY=0.5;entryDx=0;entryDy=0;" edge="1" parent="vR9m7-6arPyV4lNx2N7o-53" source="vR9m7-6arPyV4lNx2N7o-98" target="vR9m7-6arPyV4lNx2N7o-91">
          <mxGeometry relative="1" as="geometry" />
        </mxCell>
        <mxCell id="vR9m7-6arPyV4lNx2N7o-98" value="app.mount" style="swimlane;whiteSpace=wrap;html=1;" vertex="1" parent="vR9m7-6arPyV4lNx2N7o-53">
          <mxGeometry x="400" y="321" width="350" height="879" as="geometry" />
        </mxCell>
        <mxCell id="vR9m7-6arPyV4lNx2N7o-119" value="" style="edgeStyle=orthogonalEdgeStyle;rounded=0;orthogonalLoop=1;jettySize=auto;html=1;" edge="1" parent="vR9m7-6arPyV4lNx2N7o-98" source="vR9m7-6arPyV4lNx2N7o-101" target="vR9m7-6arPyV4lNx2N7o-118">
          <mxGeometry relative="1" as="geometry" />
        </mxCell>
        <mxCell id="vR9m7-6arPyV4lNx2N7o-101" value="normalizeContainer&lt;br&gt;处理container/selector&lt;br&gt;返回container" style="rounded=1;whiteSpace=wrap;html=1;" vertex="1" parent="vR9m7-6arPyV4lNx2N7o-98">
          <mxGeometry x="90" y="49" width="170" height="60" as="geometry" />
        </mxCell>
        <mxCell id="vR9m7-6arPyV4lNx2N7o-125" value="" style="edgeStyle=orthogonalEdgeStyle;rounded=0;orthogonalLoop=1;jettySize=auto;html=1;" edge="1" parent="vR9m7-6arPyV4lNx2N7o-98" source="vR9m7-6arPyV4lNx2N7o-118" target="vR9m7-6arPyV4lNx2N7o-124">
          <mxGeometry relative="1" as="geometry" />
        </mxCell>
        <mxCell id="vR9m7-6arPyV4lNx2N7o-118" value="app._component非方法、render、template" style="whiteSpace=wrap;html=1;rounded=1;" vertex="1" parent="vR9m7-6arPyV4lNx2N7o-98">
          <mxGeometry x="107.5" y="149" width="135" height="60" as="geometry" />
        </mxCell>
        <mxCell id="vR9m7-6arPyV4lNx2N7o-127" value="" style="edgeStyle=orthogonalEdgeStyle;rounded=0;orthogonalLoop=1;jettySize=auto;html=1;" edge="1" parent="vR9m7-6arPyV4lNx2N7o-98" source="vR9m7-6arPyV4lNx2N7o-124" target="vR9m7-6arPyV4lNx2N7o-126">
          <mxGeometry relative="1" as="geometry" />
        </mxCell>
        <mxCell id="vR9m7-6arPyV4lNx2N7o-124" value="app._component.template=&lt;br&gt;container.innerHTML" style="whiteSpace=wrap;html=1;rounded=1;" vertex="1" parent="vR9m7-6arPyV4lNx2N7o-98">
          <mxGeometry x="92.5" y="239" width="165" height="60" as="geometry" />
        </mxCell>
        <mxCell id="vR9m7-6arPyV4lNx2N7o-132" value="" style="edgeStyle=orthogonalEdgeStyle;rounded=0;orthogonalLoop=1;jettySize=auto;html=1;" edge="1" parent="vR9m7-6arPyV4lNx2N7o-98" source="vR9m7-6arPyV4lNx2N7o-126" target="vR9m7-6arPyV4lNx2N7o-131">
          <mxGeometry relative="1" as="geometry" />
        </mxCell>
        <mxCell id="vR9m7-6arPyV4lNx2N7o-126" value="清空container.innerHTML" style="whiteSpace=wrap;html=1;rounded=1;" vertex="1" parent="vR9m7-6arPyV4lNx2N7o-98">
          <mxGeometry x="115" y="339" width="120" height="60" as="geometry" />
        </mxCell>
        <mxCell id="vR9m7-6arPyV4lNx2N7o-186" style="edgeStyle=orthogonalEdgeStyle;rounded=0;orthogonalLoop=1;jettySize=auto;html=1;exitX=0.5;exitY=1;exitDx=0;exitDy=0;entryX=0.5;entryY=0;entryDx=0;entryDy=0;" edge="1" parent="vR9m7-6arPyV4lNx2N7o-98" source="vR9m7-6arPyV4lNx2N7o-128" target="vR9m7-6arPyV4lNx2N7o-183">
          <mxGeometry relative="1" as="geometry" />
        </mxCell>
        <mxCell id="vR9m7-6arPyV4lNx2N7o-128" value="proxy =&amp;nbsp;包装前的 mount&lt;br&gt;(rootContainer,false,namespace)" style="whiteSpace=wrap;html=1;rounded=1;" vertex="1" parent="vR9m7-6arPyV4lNx2N7o-98">
          <mxGeometry x="82.5" y="549" width="185" height="60" as="geometry" />
        </mxCell>
        <mxCell id="vR9m7-6arPyV4lNx2N7o-133" value="" style="edgeStyle=orthogonalEdgeStyle;rounded=0;orthogonalLoop=1;jettySize=auto;html=1;" edge="1" parent="vR9m7-6arPyV4lNx2N7o-98" source="vR9m7-6arPyV4lNx2N7o-131" target="vR9m7-6arPyV4lNx2N7o-128">
          <mxGeometry relative="1" as="geometry" />
        </mxCell>
        <mxCell id="vR9m7-6arPyV4lNx2N7o-131" value="resolveRootNamespace(container)&lt;br&gt;返回命名空间字符串" style="whiteSpace=wrap;html=1;rounded=1;" vertex="1" parent="vR9m7-6arPyV4lNx2N7o-98">
          <mxGeometry x="60" y="439" width="230" height="60" as="geometry" />
        </mxCell>
        <mxCell id="vR9m7-6arPyV4lNx2N7o-185" value="" style="edgeStyle=orthogonalEdgeStyle;rounded=0;orthogonalLoop=1;jettySize=auto;html=1;" edge="1" parent="vR9m7-6arPyV4lNx2N7o-98" source="vR9m7-6arPyV4lNx2N7o-183" target="vR9m7-6arPyV4lNx2N7o-184">
          <mxGeometry relative="1" as="geometry" />
        </mxCell>
        <mxCell id="vR9m7-6arPyV4lNx2N7o-190" style="edgeStyle=orthogonalEdgeStyle;rounded=0;orthogonalLoop=1;jettySize=auto;html=1;exitX=1;exitY=0.5;exitDx=0;exitDy=0;entryX=0.5;entryY=0;entryDx=0;entryDy=0;" edge="1" parent="vR9m7-6arPyV4lNx2N7o-98" source="vR9m7-6arPyV4lNx2N7o-183" target="vR9m7-6arPyV4lNx2N7o-189">
          <mxGeometry relative="1" as="geometry" />
        </mxCell>
        <mxCell id="vR9m7-6arPyV4lNx2N7o-183" value="container 是element" style="rhombus;whiteSpace=wrap;html=1;" vertex="1" parent="vR9m7-6arPyV4lNx2N7o-98">
          <mxGeometry x="30" y="649" width="157" height="80" as="geometry" />
        </mxCell>
        <mxCell id="vR9m7-6arPyV4lNx2N7o-184" value="返回proxy" style="rounded=1;whiteSpace=wrap;html=1;" vertex="1" parent="vR9m7-6arPyV4lNx2N7o-98">
          <mxGeometry x="48.5" y="779" width="120" height="60" as="geometry" />
        </mxCell>
        <mxCell id="vR9m7-6arPyV4lNx2N7o-191" style="edgeStyle=orthogonalEdgeStyle;rounded=0;orthogonalLoop=1;jettySize=auto;html=1;exitX=0.5;exitY=1;exitDx=0;exitDy=0;entryX=1;entryY=0.5;entryDx=0;entryDy=0;" edge="1" parent="vR9m7-6arPyV4lNx2N7o-98" source="vR9m7-6arPyV4lNx2N7o-189" target="vR9m7-6arPyV4lNx2N7o-184">
          <mxGeometry relative="1" as="geometry" />
        </mxCell>
        <mxCell id="vR9m7-6arPyV4lNx2N7o-189" value="container&lt;br&gt;移除v-cloak、增加data-v-app" style="rounded=1;whiteSpace=wrap;html=1;" vertex="1" parent="vR9m7-6arPyV4lNx2N7o-98">
          <mxGeometry x="168.5" y="718" width="170" height="60" as="geometry" />
        </mxCell>
        <mxCell id="vR9m7-6arPyV4lNx2N7o-102" value="normalizeContainer" style="swimlane;whiteSpace=wrap;html=1;" vertex="1" parent="vR9m7-6arPyV4lNx2N7o-53">
          <mxGeometry x="790" y="321" width="410" height="309" as="geometry" />
        </mxCell>
        <mxCell id="vR9m7-6arPyV4lNx2N7o-113" style="edgeStyle=orthogonalEdgeStyle;rounded=0;orthogonalLoop=1;jettySize=auto;html=1;entryX=1;entryY=0.5;entryDx=0;entryDy=0;" edge="1" parent="vR9m7-6arPyV4lNx2N7o-102" source="vR9m7-6arPyV4lNx2N7o-104" target="vR9m7-6arPyV4lNx2N7o-108">
          <mxGeometry relative="1" as="geometry" />
        </mxCell>
        <mxCell id="vR9m7-6arPyV4lNx2N7o-115" value="N" style="edgeLabel;html=1;align=center;verticalAlign=middle;resizable=0;points=[];" vertex="1" connectable="0" parent="vR9m7-6arPyV4lNx2N7o-113">
          <mxGeometry x="-0.1" y="4" relative="1" as="geometry">
            <mxPoint as="offset" />
          </mxGeometry>
        </mxCell>
        <mxCell id="vR9m7-6arPyV4lNx2N7o-114" style="edgeStyle=orthogonalEdgeStyle;rounded=0;orthogonalLoop=1;jettySize=auto;html=1;exitX=0.5;exitY=1;exitDx=0;exitDy=0;entryX=1;entryY=0.5;entryDx=0;entryDy=0;" edge="1" parent="vR9m7-6arPyV4lNx2N7o-102" source="vR9m7-6arPyV4lNx2N7o-104" target="vR9m7-6arPyV4lNx2N7o-107">
          <mxGeometry relative="1" as="geometry" />
        </mxCell>
        <mxCell id="vR9m7-6arPyV4lNx2N7o-104" value="container是&lt;br&gt;字符串？" style="rhombus;whiteSpace=wrap;html=1;" vertex="1" parent="vR9m7-6arPyV4lNx2N7o-102">
          <mxGeometry x="320" y="59" width="80" height="80" as="geometry" />
        </mxCell>
        <mxCell id="vR9m7-6arPyV4lNx2N7o-107" value="校验" style="rounded=1;whiteSpace=wrap;html=1;" vertex="1" parent="vR9m7-6arPyV4lNx2N7o-102">
          <mxGeometry x="200" y="169" width="70" height="60" as="geometry" />
        </mxCell>
        <mxCell id="vR9m7-6arPyV4lNx2N7o-111" value="" style="edgeStyle=orthogonalEdgeStyle;rounded=0;orthogonalLoop=1;jettySize=auto;html=1;" edge="1" parent="vR9m7-6arPyV4lNx2N7o-102" source="vR9m7-6arPyV4lNx2N7o-108" target="vR9m7-6arPyV4lNx2N7o-109">
          <mxGeometry relative="1" as="geometry" />
        </mxCell>
        <mxCell id="vR9m7-6arPyV4lNx2N7o-108" value="校验" style="rounded=1;whiteSpace=wrap;html=1;" vertex="1" parent="vR9m7-6arPyV4lNx2N7o-102">
          <mxGeometry x="200" y="69" width="70" height="60" as="geometry" />
        </mxCell>
        <mxCell id="vR9m7-6arPyV4lNx2N7o-109" value="直接返回container" style="rounded=1;whiteSpace=wrap;html=1;" vertex="1" parent="vR9m7-6arPyV4lNx2N7o-102">
          <mxGeometry x="30" y="69" width="120" height="60" as="geometry" />
        </mxCell>
        <mxCell id="vR9m7-6arPyV4lNx2N7o-105" value="返回element" style="rounded=1;whiteSpace=wrap;html=1;" vertex="1" parent="vR9m7-6arPyV4lNx2N7o-102">
          <mxGeometry x="30" y="169" width="120" height="60" as="geometry" />
        </mxCell>
        <mxCell id="vR9m7-6arPyV4lNx2N7o-110" value="" style="edgeStyle=orthogonalEdgeStyle;rounded=0;orthogonalLoop=1;jettySize=auto;html=1;" edge="1" parent="vR9m7-6arPyV4lNx2N7o-102" source="vR9m7-6arPyV4lNx2N7o-107" target="vR9m7-6arPyV4lNx2N7o-105">
          <mxGeometry relative="1" as="geometry" />
        </mxCell>
        <mxCell id="vR9m7-6arPyV4lNx2N7o-117" style="edgeStyle=orthogonalEdgeStyle;rounded=0;orthogonalLoop=1;jettySize=auto;html=1;entryX=1;entryY=0.5;entryDx=0;entryDy=0;" edge="1" parent="vR9m7-6arPyV4lNx2N7o-53" source="vR9m7-6arPyV4lNx2N7o-102" target="vR9m7-6arPyV4lNx2N7o-101">
          <mxGeometry relative="1" as="geometry" />
        </mxCell>
        <mxCell id="vR9m7-6arPyV4lNx2N7o-135" style="edgeStyle=orthogonalEdgeStyle;rounded=0;orthogonalLoop=1;jettySize=auto;html=1;entryX=1;entryY=0.5;entryDx=0;entryDy=0;dashed=1;" edge="1" parent="vR9m7-6arPyV4lNx2N7o-53" source="vR9m7-6arPyV4lNx2N7o-134" target="vR9m7-6arPyV4lNx2N7o-131">
          <mxGeometry relative="1" as="geometry" />
        </mxCell>
        <mxCell id="vR9m7-6arPyV4lNx2N7o-134" value="resolveRootNamespace" style="swimlane;whiteSpace=wrap;html=1;fillColor=#fff2cc;strokeColor=#d6b656;" vertex="1" parent="vR9m7-6arPyV4lNx2N7o-53">
          <mxGeometry x="790" y="690" width="200" height="200" as="geometry" />
        </mxCell>
        <mxCell id="vR9m7-6arPyV4lNx2N7o-54" value="packages\runtime-dom\src\index.ts" style="swimlane;whiteSpace=wrap;html=1;fillColor=#dae8fc;strokeColor=#6c8ebf;" vertex="1" parent="WIyWlLk6GJQsqaUBKTNV-1">
          <mxGeometry x="-140" y="-180" width="270" height="200" as="geometry" />
        </mxCell>
        <mxCell id="vR9m7-6arPyV4lNx2N7o-20" value="rendererOptions" style="whiteSpace=wrap;html=1;rounded=1;glass=0;strokeWidth=1;shadow=0;" vertex="1" parent="vR9m7-6arPyV4lNx2N7o-54">
          <mxGeometry x="75" y="70" width="120" height="60" as="geometry" />
        </mxCell>
        <mxCell id="vR9m7-6arPyV4lNx2N7o-55" value="packages\runtime-dom\src\nodeOps.ts" style="swimlane;whiteSpace=wrap;html=1;fillColor=#dae8fc;strokeColor=#6c8ebf;" vertex="1" parent="WIyWlLk6GJQsqaUBKTNV-1">
          <mxGeometry x="-380" y="-440" width="290" height="200" as="geometry" />
        </mxCell>
        <mxCell id="vR9m7-6arPyV4lNx2N7o-26" value="nodeOps" style="whiteSpace=wrap;html=1;rounded=1;glass=0;strokeWidth=1;shadow=0;" vertex="1" parent="vR9m7-6arPyV4lNx2N7o-55">
          <mxGeometry x="90" y="60" width="120" height="60" as="geometry" />
        </mxCell>
        <mxCell id="vR9m7-6arPyV4lNx2N7o-56" value="packages\runtime-dom\src\patchProp.ts" style="swimlane;whiteSpace=wrap;html=1;fillColor=#dae8fc;strokeColor=#6c8ebf;" vertex="1" parent="WIyWlLk6GJQsqaUBKTNV-1">
          <mxGeometry x="70" y="-440" width="280" height="200" as="geometry" />
        </mxCell>
        <mxCell id="vR9m7-6arPyV4lNx2N7o-23" value="patchProp" style="whiteSpace=wrap;html=1;rounded=1;glass=0;strokeWidth=1;shadow=0;" vertex="1" parent="vR9m7-6arPyV4lNx2N7o-56">
          <mxGeometry x="100" y="70" width="120" height="60" as="geometry" />
        </mxCell>
        <mxCell id="vR9m7-6arPyV4lNx2N7o-79" style="edgeStyle=orthogonalEdgeStyle;rounded=0;orthogonalLoop=1;jettySize=auto;html=1;entryX=0.5;entryY=0;entryDx=0;entryDy=0;dashed=1;" edge="1" parent="WIyWlLk6GJQsqaUBKTNV-1" source="vR9m7-6arPyV4lNx2N7o-20" target="vR9m7-6arPyV4lNx2N7o-14">
          <mxGeometry relative="1" as="geometry" />
        </mxCell>
        <mxCell id="vR9m7-6arPyV4lNx2N7o-80" value="packages\runtime-core\src\renderer.ts" style="swimlane;whiteSpace=wrap;html=1;fillColor=#dae8fc;strokeColor=#6c8ebf;" vertex="1" parent="WIyWlLk6GJQsqaUBKTNV-1">
          <mxGeometry x="1390" y="-730" width="723" height="720" as="geometry" />
        </mxCell>
        <mxCell id="vR9m7-6arPyV4lNx2N7o-81" value="createRenderer" style="swimlane;whiteSpace=wrap;html=1;" vertex="1" parent="vR9m7-6arPyV4lNx2N7o-80">
          <mxGeometry x="43" y="60" width="247" height="420" as="geometry" />
        </mxCell>
        <mxCell id="vR9m7-6arPyV4lNx2N7o-84" value="baseCreateRenderer" style="rounded=1;whiteSpace=wrap;html=1;" vertex="1" parent="vR9m7-6arPyV4lNx2N7o-81">
          <mxGeometry x="48.5" y="160" width="150" height="60" as="geometry" />
        </mxCell>
        <mxCell id="vR9m7-6arPyV4lNx2N7o-85" style="edgeStyle=orthogonalEdgeStyle;rounded=0;orthogonalLoop=1;jettySize=auto;html=1;exitX=0;exitY=0.5;exitDx=0;exitDy=0;entryX=1;entryY=0.5;entryDx=0;entryDy=0;dashed=1;" edge="1" parent="vR9m7-6arPyV4lNx2N7o-80" source="vR9m7-6arPyV4lNx2N7o-38" target="vR9m7-6arPyV4lNx2N7o-84">
          <mxGeometry relative="1" as="geometry" />
        </mxCell>
        <mxCell id="vR9m7-6arPyV4lNx2N7o-38" value="baseCreateRenderer" style="swimlane;whiteSpace=wrap;html=1;startSize=20;" vertex="1" parent="vR9m7-6arPyV4lNx2N7o-80">
          <mxGeometry x="401" y="60" width="280" height="625" as="geometry" />
        </mxCell>
        <mxCell id="vR9m7-6arPyV4lNx2N7o-36" value="获得全局对象this（如window），并标记__VUE__" style="whiteSpace=wrap;html=1;rounded=1;glass=0;strokeWidth=1;shadow=0;" vertex="1" parent="vR9m7-6arPyV4lNx2N7o-38">
          <mxGeometry x="80" y="55" width="120" height="60" as="geometry" />
        </mxCell>
        <mxCell id="vR9m7-6arPyV4lNx2N7o-61" value="" style="edgeStyle=orthogonalEdgeStyle;rounded=0;orthogonalLoop=1;jettySize=auto;html=1;entryX=0.5;entryY=0;entryDx=0;entryDy=0;" edge="1" parent="vR9m7-6arPyV4lNx2N7o-38" source="vR9m7-6arPyV4lNx2N7o-41" target="vR9m7-6arPyV4lNx2N7o-62">
          <mxGeometry relative="1" as="geometry">
            <mxPoint x="140" y="260" as="targetPoint" />
          </mxGeometry>
        </mxCell>
        <mxCell id="vR9m7-6arPyV4lNx2N7o-41" value="从options获得一些封装过的dom处理方法" style="whiteSpace=wrap;html=1;rounded=1;glass=0;strokeWidth=1;shadow=0;" vertex="1" parent="vR9m7-6arPyV4lNx2N7o-38">
          <mxGeometry x="80" y="150" width="120" height="60" as="geometry" />
        </mxCell>
        <mxCell id="vR9m7-6arPyV4lNx2N7o-42" value="" style="edgeStyle=orthogonalEdgeStyle;rounded=0;orthogonalLoop=1;jettySize=auto;html=1;" edge="1" parent="vR9m7-6arPyV4lNx2N7o-38" source="vR9m7-6arPyV4lNx2N7o-36" target="vR9m7-6arPyV4lNx2N7o-41">
          <mxGeometry relative="1" as="geometry" />
        </mxCell>
        <mxCell id="vR9m7-6arPyV4lNx2N7o-43" value="返回render、hydrate、createApp" style="whiteSpace=wrap;html=1;rounded=1;glass=0;strokeWidth=1;shadow=0;" vertex="1" parent="vR9m7-6arPyV4lNx2N7o-38">
          <mxGeometry x="80" y="544" width="120" height="60" as="geometry" />
        </mxCell>
        <mxCell id="vR9m7-6arPyV4lNx2N7o-88" value="" style="edgeStyle=orthogonalEdgeStyle;rounded=0;orthogonalLoop=1;jettySize=auto;html=1;" edge="1" parent="vR9m7-6arPyV4lNx2N7o-38" source="vR9m7-6arPyV4lNx2N7o-62" target="vR9m7-6arPyV4lNx2N7o-86">
          <mxGeometry relative="1" as="geometry" />
        </mxCell>
        <mxCell id="vR9m7-6arPyV4lNx2N7o-62" value="render等方法&lt;br&gt;..." style="whiteSpace=wrap;html=1;rounded=1;glass=0;strokeWidth=1;shadow=0;fillColor=#fff2cc;strokeColor=#d6b656;" vertex="1" parent="vR9m7-6arPyV4lNx2N7o-38">
          <mxGeometry x="80" y="280" width="120" height="60" as="geometry" />
        </mxCell>
        <mxCell id="vR9m7-6arPyV4lNx2N7o-87" value="" style="edgeStyle=orthogonalEdgeStyle;rounded=0;orthogonalLoop=1;jettySize=auto;html=1;" edge="1" parent="vR9m7-6arPyV4lNx2N7o-38" source="vR9m7-6arPyV4lNx2N7o-86" target="vR9m7-6arPyV4lNx2N7o-43">
          <mxGeometry relative="1" as="geometry" />
        </mxCell>
        <mxCell id="vR9m7-6arPyV4lNx2N7o-86" value="createAppAPI" style="whiteSpace=wrap;html=1;rounded=1;glass=0;strokeWidth=1;shadow=0;" vertex="1" parent="vR9m7-6arPyV4lNx2N7o-38">
          <mxGeometry x="80" y="420" width="120" height="60" as="geometry" />
        </mxCell>
        <mxCell id="vR9m7-6arPyV4lNx2N7o-82" style="edgeStyle=orthogonalEdgeStyle;rounded=0;orthogonalLoop=1;jettySize=auto;html=1;exitX=0;exitY=0.5;exitDx=0;exitDy=0;entryX=1;entryY=0.5;entryDx=0;entryDy=0;dashed=1;" edge="1" parent="WIyWlLk6GJQsqaUBKTNV-1" source="vR9m7-6arPyV4lNx2N7o-81" target="vR9m7-6arPyV4lNx2N7o-14">
          <mxGeometry relative="1" as="geometry" />
        </mxCell>
        <mxCell id="vR9m7-6arPyV4lNx2N7o-89" style="edgeStyle=orthogonalEdgeStyle;rounded=0;orthogonalLoop=1;jettySize=auto;html=1;exitX=0.5;exitY=0;exitDx=0;exitDy=0;entryX=0;entryY=0.5;entryDx=0;entryDy=0;dashed=1;" edge="1" parent="WIyWlLk6GJQsqaUBKTNV-1" source="vR9m7-6arPyV4lNx2N7o-58" target="vR9m7-6arPyV4lNx2N7o-86">
          <mxGeometry relative="1" as="geometry" />
        </mxCell>
        <mxCell id="vR9m7-6arPyV4lNx2N7o-90" style="edgeStyle=orthogonalEdgeStyle;rounded=0;orthogonalLoop=1;jettySize=auto;html=1;entryX=1;entryY=0.5;entryDx=0;entryDy=0;dashed=1;" edge="1" parent="WIyWlLk6GJQsqaUBKTNV-1" source="vR9m7-6arPyV4lNx2N7o-43" target="vR9m7-6arPyV4lNx2N7o-77">
          <mxGeometry relative="1" as="geometry" />
        </mxCell>
        <mxCell id="vR9m7-6arPyV4lNx2N7o-93" value="index.html" style="swimlane;whiteSpace=wrap;html=1;fillColor=#dae8fc;strokeColor=#6c8ebf;" vertex="1" parent="WIyWlLk6GJQsqaUBKTNV-1">
          <mxGeometry x="-534" y="79" width="444" height="460" as="geometry" />
        </mxCell>
        <mxCell id="vR9m7-6arPyV4lNx2N7o-96" value="" style="edgeStyle=orthogonalEdgeStyle;rounded=0;orthogonalLoop=1;jettySize=auto;html=1;" edge="1" parent="vR9m7-6arPyV4lNx2N7o-93" source="vR9m7-6arPyV4lNx2N7o-94" target="vR9m7-6arPyV4lNx2N7o-95">
          <mxGeometry relative="1" as="geometry" />
        </mxCell>
        <mxCell id="vR9m7-6arPyV4lNx2N7o-94" value="createApp" style="rounded=1;whiteSpace=wrap;html=1;" vertex="1" parent="vR9m7-6arPyV4lNx2N7o-93">
          <mxGeometry x="134" y="60" width="120" height="60" as="geometry" />
        </mxCell>
        <mxCell id="vR9m7-6arPyV4lNx2N7o-95" value="createApp().mount(&#39;#app&#39;)" style="whiteSpace=wrap;html=1;rounded=1;" vertex="1" parent="vR9m7-6arPyV4lNx2N7o-93">
          <mxGeometry x="116" y="200" width="156" height="60" as="geometry" />
        </mxCell>
        <mxCell id="vR9m7-6arPyV4lNx2N7o-97" style="edgeStyle=orthogonalEdgeStyle;rounded=0;orthogonalLoop=1;jettySize=auto;html=1;exitX=0;exitY=0.5;exitDx=0;exitDy=0;entryX=1;entryY=0.5;entryDx=0;entryDy=0;dashed=1;" edge="1" parent="WIyWlLk6GJQsqaUBKTNV-1" source="vR9m7-6arPyV4lNx2N7o-74" target="vR9m7-6arPyV4lNx2N7o-94">
          <mxGeometry relative="1" as="geometry" />
        </mxCell>
        <mxCell id="vR9m7-6arPyV4lNx2N7o-100" style="edgeStyle=orthogonalEdgeStyle;rounded=0;orthogonalLoop=1;jettySize=auto;html=1;exitX=0;exitY=0.5;exitDx=0;exitDy=0;entryX=1;entryY=0.5;entryDx=0;entryDy=0;dashed=1;" edge="1" parent="WIyWlLk6GJQsqaUBKTNV-1" source="vR9m7-6arPyV4lNx2N7o-91" target="vR9m7-6arPyV4lNx2N7o-95">
          <mxGeometry relative="1" as="geometry" />
        </mxCell>
        <mxCell id="vR9m7-6arPyV4lNx2N7o-116" value="Y" style="text;html=1;align=center;verticalAlign=middle;resizable=0;points=[];autosize=1;strokeColor=none;fillColor=none;" vertex="1" parent="WIyWlLk6GJQsqaUBKTNV-1">
          <mxGeometry x="1125" y="638" width="30" height="30" as="geometry" />
        </mxCell>
        <mxCell id="vR9m7-6arPyV4lNx2N7o-130" style="edgeStyle=orthogonalEdgeStyle;rounded=0;orthogonalLoop=1;jettySize=auto;html=1;entryX=1;entryY=0.5;entryDx=0;entryDy=0;dashed=1;exitX=0;exitY=0.5;exitDx=0;exitDy=0;" edge="1" parent="WIyWlLk6GJQsqaUBKTNV-1" source="vR9m7-6arPyV4lNx2N7o-69" target="vR9m7-6arPyV4lNx2N7o-128">
          <mxGeometry relative="1" as="geometry">
            <Array as="points">
              <mxPoint x="1310" y="450" />
              <mxPoint x="1310" y="1030" />
            </Array>
          </mxGeometry>
        </mxCell>
        <mxCell id="vR9m7-6arPyV4lNx2N7o-142" style="edgeStyle=orthogonalEdgeStyle;rounded=0;orthogonalLoop=1;jettySize=auto;html=1;exitX=0.75;exitY=1;exitDx=0;exitDy=0;entryX=0;entryY=0.5;entryDx=0;entryDy=0;dashed=1;" edge="1" parent="WIyWlLk6GJQsqaUBKTNV-1" source="vR9m7-6arPyV4lNx2N7o-77" target="vR9m7-6arPyV4lNx2N7o-139">
          <mxGeometry relative="1" as="geometry" />
        </mxCell>
        <mxCell id="vR9m7-6arPyV4lNx2N7o-144" value="rootComponent" style="edgeLabel;html=1;align=center;verticalAlign=middle;resizable=0;points=[];" vertex="1" connectable="0" parent="vR9m7-6arPyV4lNx2N7o-142">
          <mxGeometry x="0.6336" y="-1" relative="1" as="geometry">
            <mxPoint x="254" y="-1" as="offset" />
          </mxGeometry>
        </mxCell>
        <mxCell id="vR9m7-6arPyV4lNx2N7o-147" value="/packages/runtime-core/src/vnode.ts" style="swimlane;whiteSpace=wrap;html=1;fillColor=#dae8fc;strokeColor=#6c8ebf;" vertex="1" parent="WIyWlLk6GJQsqaUBKTNV-1">
          <mxGeometry x="2380" y="140" width="700" height="960" as="geometry" />
        </mxCell>
        <mxCell id="vR9m7-6arPyV4lNx2N7o-145" value="createVNodeWithArgsTransform" style="swimlane;whiteSpace=wrap;html=1;" vertex="1" parent="vR9m7-6arPyV4lNx2N7o-147">
          <mxGeometry x="80" y="295" width="200" height="200" as="geometry" />
        </mxCell>
        <mxCell id="vR9m7-6arPyV4lNx2N7o-148" value="_createVNode" style="rounded=1;whiteSpace=wrap;html=1;" vertex="1" parent="vR9m7-6arPyV4lNx2N7o-145">
          <mxGeometry x="40" y="70" width="120" height="60" as="geometry" />
        </mxCell>
        <mxCell id="vR9m7-6arPyV4lNx2N7o-149" style="edgeStyle=orthogonalEdgeStyle;rounded=0;orthogonalLoop=1;jettySize=auto;html=1;entryX=1;entryY=0.5;entryDx=0;entryDy=0;dashed=1;" edge="1" parent="vR9m7-6arPyV4lNx2N7o-147" source="vR9m7-6arPyV4lNx2N7o-146" target="vR9m7-6arPyV4lNx2N7o-148">
          <mxGeometry relative="1" as="geometry" />
        </mxCell>
        <mxCell id="vR9m7-6arPyV4lNx2N7o-146" value="_createVNode" style="swimlane;whiteSpace=wrap;html=1;" vertex="1" parent="vR9m7-6arPyV4lNx2N7o-147">
          <mxGeometry x="380" y="295" width="200" height="365" as="geometry" />
        </mxCell>
        <mxCell id="vR9m7-6arPyV4lNx2N7o-151" value="..." style="rounded=1;whiteSpace=wrap;html=1;fillColor=#fff2cc;strokeColor=#d6b656;" vertex="1" parent="vR9m7-6arPyV4lNx2N7o-146">
          <mxGeometry x="40" y="35" width="120" height="60" as="geometry" />
        </mxCell>
        <mxCell id="vR9m7-6arPyV4lNx2N7o-154" value="" style="edgeStyle=orthogonalEdgeStyle;rounded=0;orthogonalLoop=1;jettySize=auto;html=1;" edge="1" parent="vR9m7-6arPyV4lNx2N7o-146" source="vR9m7-6arPyV4lNx2N7o-152" target="vR9m7-6arPyV4lNx2N7o-153">
          <mxGeometry relative="1" as="geometry" />
        </mxCell>
        <mxCell id="vR9m7-6arPyV4lNx2N7o-152" value="shapeFlag ===&amp;nbsp;&lt;br&gt;STATEFUL_COMPONENT" style="rounded=1;whiteSpace=wrap;html=1;" vertex="1" parent="vR9m7-6arPyV4lNx2N7o-146">
          <mxGeometry x="15" y="130" width="170" height="60" as="geometry" />
        </mxCell>
        <mxCell id="vR9m7-6arPyV4lNx2N7o-153" value="createBaseVNode" style="whiteSpace=wrap;html=1;rounded=1;" vertex="1" parent="vR9m7-6arPyV4lNx2N7o-146">
          <mxGeometry x="40" y="270" width="120" height="60" as="geometry" />
        </mxCell>
        <mxCell id="vR9m7-6arPyV4lNx2N7o-150" style="edgeStyle=orthogonalEdgeStyle;rounded=0;orthogonalLoop=1;jettySize=auto;html=1;entryX=1;entryY=0.5;entryDx=0;entryDy=0;dashed=1;" edge="1" parent="WIyWlLk6GJQsqaUBKTNV-1" source="vR9m7-6arPyV4lNx2N7o-148" target="vR9m7-6arPyV4lNx2N7o-139">
          <mxGeometry relative="1" as="geometry" />
        </mxCell>
        <mxCell id="vR9m7-6arPyV4lNx2N7o-155" value="/packages/runtime-core/src/vnode.ts" style="swimlane;whiteSpace=wrap;html=1;fillColor=#dae8fc;strokeColor=#6c8ebf;" vertex="1" parent="WIyWlLk6GJQsqaUBKTNV-1">
          <mxGeometry x="3160" y="140" width="660" height="800" as="geometry" />
        </mxCell>
        <mxCell id="vR9m7-6arPyV4lNx2N7o-156" value="createBaseVNode" style="swimlane;whiteSpace=wrap;html=1;fillColor=#fff2cc;strokeColor=#d6b656;" vertex="1" parent="vR9m7-6arPyV4lNx2N7o-155">
          <mxGeometry x="70" y="69" width="310" height="231" as="geometry" />
        </mxCell>
        <mxCell id="vR9m7-6arPyV4lNx2N7o-158" value="normalizeChildren(vnode, children)" style="rounded=1;whiteSpace=wrap;html=1;" vertex="1" parent="vR9m7-6arPyV4lNx2N7o-156">
          <mxGeometry x="20" y="91" width="205" height="60" as="geometry" />
        </mxCell>
        <mxCell id="vR9m7-6arPyV4lNx2N7o-160" style="edgeStyle=orthogonalEdgeStyle;rounded=0;orthogonalLoop=1;jettySize=auto;html=1;entryX=1;entryY=0.5;entryDx=0;entryDy=0;dashed=1;" edge="1" parent="vR9m7-6arPyV4lNx2N7o-155" source="vR9m7-6arPyV4lNx2N7o-159" target="vR9m7-6arPyV4lNx2N7o-158">
          <mxGeometry relative="1" as="geometry" />
        </mxCell>
        <mxCell id="vR9m7-6arPyV4lNx2N7o-159" value="normalizeChildren" style="swimlane;whiteSpace=wrap;html=1;fillColor=#fff2cc;strokeColor=#d6b656;" vertex="1" parent="vR9m7-6arPyV4lNx2N7o-155">
          <mxGeometry x="430" y="69" width="200" height="121" as="geometry" />
        </mxCell>
        <mxCell id="vR9m7-6arPyV4lNx2N7o-157" style="edgeStyle=orthogonalEdgeStyle;rounded=0;orthogonalLoop=1;jettySize=auto;html=1;entryX=1;entryY=0.5;entryDx=0;entryDy=0;dashed=1;" edge="1" parent="WIyWlLk6GJQsqaUBKTNV-1" source="vR9m7-6arPyV4lNx2N7o-156" target="vR9m7-6arPyV4lNx2N7o-153">
          <mxGeometry relative="1" as="geometry" />
        </mxCell>
        <mxCell id="vR9m7-6arPyV4lNx2N7o-169" style="edgeStyle=orthogonalEdgeStyle;rounded=0;orthogonalLoop=1;jettySize=auto;html=1;entryX=1;entryY=0.5;entryDx=0;entryDy=0;dashed=1;exitX=1;exitY=0.5;exitDx=0;exitDy=0;" edge="1" parent="WIyWlLk6GJQsqaUBKTNV-1" source="vR9m7-6arPyV4lNx2N7o-43" target="vR9m7-6arPyV4lNx2N7o-167">
          <mxGeometry relative="1" as="geometry" />
        </mxCell>
        <mxCell id="vR9m7-6arPyV4lNx2N7o-170" value="render" style="edgeLabel;html=1;align=center;verticalAlign=middle;resizable=0;points=[];" vertex="1" connectable="0" parent="vR9m7-6arPyV4lNx2N7o-169">
          <mxGeometry x="0.8698" y="1" relative="1" as="geometry">
            <mxPoint as="offset" />
          </mxGeometry>
        </mxCell>
        <mxCell id="vR9m7-6arPyV4lNx2N7o-174" value="/packages/runtime-core/src/component.ts" style="swimlane;whiteSpace=wrap;html=1;fillColor=#dae8fc;strokeColor=#6c8ebf;" vertex="1" parent="WIyWlLk6GJQsqaUBKTNV-1">
          <mxGeometry x="2380" y="1169" width="340" height="311" as="geometry" />
        </mxCell>
        <mxCell id="vR9m7-6arPyV4lNx2N7o-175" value="getExposeProxy" style="swimlane;whiteSpace=wrap;html=1;fillColor=#fff2cc;strokeColor=#d6b656;" vertex="1" parent="vR9m7-6arPyV4lNx2N7o-174">
          <mxGeometry x="80" y="51" width="200" height="200" as="geometry" />
        </mxCell>
      </root>
    </mxGraphModel>
  </diagram>
</mxfile>
